<svg width="56" height="50" viewBox="0 0 56 50" fill="none" xmlns="http://www.w3.org/2000/svg">
<path d="M2.32701 0C1.03746 0 0 1.04492 0 2.34375C0 3.64258 1.03746 4.6875 2.32701 4.6875H7.37856L13.2252 35.5957C13.4385 36.6992 14.3984 37.5 15.5134 37.5H47.3158C48.6054 37.5 49.6429 36.4551 49.6429 35.1562C49.6429 33.8574 48.6054 32.8125 47.3158 32.8125H17.4429L16.5605 28.125H47.2965C48.683 28.125 49.9046 27.1973 50.2828 25.8496L55.5186 7.09961C56.0712 5.10742 54.5878 3.125 52.5322 3.125H11.829L11.5963 1.9043C11.383 0.800781 10.4231 0 9.30804 0H2.32701ZM17.0647 50C19.6341 50 21.7188 47.9004 21.7188 45.3125C21.7188 42.7246 19.6341 40.625 17.0647 40.625C14.4953 40.625 12.4107 42.7246 12.4107 45.3125C12.4107 47.9004 14.4953 50 17.0647 50ZM49.6429 45.3125C49.6429 42.7246 47.5582 40.625 44.9888 40.625C42.4194 40.625 40.3348 42.7246 40.3348 45.3125C40.3348 47.9004 42.4194 50 44.9888 50C47.5582 50 49.6429 47.9004 49.6429 45.3125ZM24.4336 15.625C24.4336 14.5508 25.3062 13.6719 26.3728 13.6719H30.639V9.375C30.639 8.30078 31.5116 7.42188 32.5781 7.42188C33.6447 7.42188 34.5173 8.30078 34.5173 9.375V13.6719H38.7835C39.85 13.6719 40.7227 14.5508 40.7227 15.625C40.7227 16.6992 39.85 17.5781 38.7835 17.5781H34.5173V21.875C34.5173 22.9492 33.6447 23.8281 32.5781 23.8281C31.5116 23.8281 30.639 22.9492 30.639 21.875V17.5781H26.3728C25.3062 17.5781 24.4336 16.6992 24.4336 15.625Z" fill="white"/>
</svg>
