<svg width="44" height="50" viewBox="0 0 44 50" fill="none" xmlns="http://www.w3.org/2000/svg">
<path d="M43.662 7.8125V12.5C43.662 16.8164 33.8868 20.3125 21.831 20.3125C9.77521 20.3125 0 16.8164 0 12.5V7.8125C0 3.49609 9.77521 0 21.831 0C33.8868 0 43.662 3.49609 43.662 7.8125ZM38.3212 20.9668C40.3483 20.2441 42.2098 19.3164 43.662 18.1738V28.125C43.662 32.4414 33.8868 35.9375 21.831 35.9375C9.77521 35.9375 0 32.4414 0 28.125V18.1738C1.45215 19.3262 3.31363 20.2441 5.34079 20.9668C9.71674 22.5293 15.5448 23.4375 21.831 23.4375C28.1171 23.4375 33.9452 22.5293 38.3212 20.9668ZM0 33.7988C1.45215 34.9512 3.31363 35.8691 5.34079 36.5918C9.71674 38.1543 15.5448 39.0625 21.831 39.0625C28.1171 39.0625 33.9452 38.1543 38.3212 36.5918C40.3483 35.8691 42.2098 34.9414 43.662 33.7988V42.1875C43.662 46.5039 33.8868 50 21.831 50C9.77521 50 0 46.5039 0 42.1875V33.7988Z" fill="white"/>
</svg>
