<svg width="50" height="50" viewBox="0 0 50 50" fill="none" xmlns="http://www.w3.org/2000/svg">
<path d="M20.8353 2.31548C20.3895 0.645598 18.6932 -0.340709 17.0357 0.1085C15.3781 0.557709 14.3991 2.26666 14.845 3.93654L19.9727 23.2232C20.215 24.1217 19.5365 25.0005 18.6156 25.0005C17.9953 25.0005 17.4525 24.5904 17.2683 23.9947L13.0518 10.0302C12.5575 8.37981 10.8224 7.45209 9.18426 7.95013C7.54613 8.44816 6.62529 10.1962 7.11964 11.8465L13.2069 32.0023C13.4395 32.7738 12.509 33.35 11.9274 32.7933L6.55744 27.6372C5.00654 26.1529 2.55419 26.2115 1.07115 27.7739C-0.411888 29.3364 -0.344036 31.807 1.20686 33.3011L12.1019 43.7501C16.2796 47.7637 21.8337 50 27.6108 50H28.6674H29.4622C29.4719 50 29.4719 49.9902 29.4719 49.9902L29.4816 49.9805C35.1326 49.6387 40.0083 45.7618 41.627 40.2444L49.4978 13.3895C49.9824 11.7391 49.0422 10.0009 47.4041 9.50283C45.7659 9.00479 44.0406 9.9618 43.5462 11.6122L39.8919 24.1314C39.7368 24.649 39.2716 25.0005 38.7288 25.0005C37.963 25.0005 37.3911 24.2877 37.5462 23.526L41.0357 6.89546C41.3944 5.20605 40.3184 3.54593 38.6415 3.19437C36.9646 2.84282 35.3168 3.91701 34.9679 5.60643L31.3233 22.9596C31.0712 24.1509 30.0341 25.0005 28.8224 25.0005C27.669 25.0005 26.6512 24.2193 26.3604 23.0963L20.8353 2.31548Z" fill="white"/>
</svg>
