<svg width="104" height="149" viewBox="0 0 104 149" fill="none" xmlns="http://www.w3.org/2000/svg">
<path d="M34.1005 43.2969H19.1748V60.1007H34.1005V43.2969Z" fill="white" stroke="#1C3487" stroke-linecap="round" stroke-linejoin="round"/>
<path d="M56.4403 34.8887H41.5146V60.1006H56.4403V34.8887Z" fill="white" stroke="#1C3487" stroke-linecap="round" stroke-linejoin="round"/>
<path d="M78.7655 26.4932H63.8398V60.1133H78.7655V26.4932Z" fill="white" stroke="#1C3487" stroke-linecap="round" stroke-linejoin="round"/>
<path d="M71.3032 0L61.2657 2.68663L63.2433 4.67672L47.1112 20.8089L40.7677 14.4779L37.3846 17.8611L25.8545 29.3912L29.2376 32.7743L40.7677 21.2442L43.728 24.1921L47.1112 27.5752L50.4943 24.1921L66.6265 8.05987L68.6166 10.0375L71.3032 0Z" fill="#EB2338"/>
<path d="M71.6522 100.511C88.9649 100.511 103 86.4766 103 69.1639C103 51.8512 88.9649 37.8164 71.6522 37.8164C54.3394 37.8164 40.3047 51.8512 40.3047 69.1639C40.3047 86.4766 54.3394 100.511 71.6522 100.511Z" fill="#EB2338" stroke="#1C3487" stroke-width="1.3" stroke-linecap="round" stroke-linejoin="round"/>
<path d="M32.8084 95H14.7373V147.631H32.8084V95Z" fill="white" stroke="#1C3487" stroke-width="1.3" stroke-linecap="round" stroke-linejoin="round"/>
<path d="M32.8084 121.319H14.7373V147.629H32.8084V121.319Z" fill="white" stroke="#1C3487" stroke-width="1.3" stroke-linecap="round" stroke-linejoin="round"/>
<path d="M32.8084 121.319H14.7373L21.1626 142.42H39.2336L32.8084 121.319Z" fill="white" stroke="#1C3487" stroke-width="1.3" stroke-linecap="round" stroke-linejoin="round"/>
<path d="M21.1626 142.423L14.7373 147.631H32.8084L39.2336 142.423H21.1626Z" fill="#1C3487" stroke="#1C3487" stroke-width="1.3" stroke-linecap="round" stroke-linejoin="round"/>
<path d="M60.7839 95H42.7129V147.631H60.7839V95Z" fill="white" stroke="#1C3487" stroke-width="1.3" stroke-linecap="round" stroke-linejoin="round"/>
<path d="M60.7839 121.319H42.7129V147.629H60.7839V121.319Z" fill="white" stroke="#1C3487" stroke-width="1.3" stroke-linecap="round" stroke-linejoin="round"/>
<path d="M60.7839 121.319H42.7129L49.1503 142.42H67.2214L60.7839 121.319Z" fill="white" stroke="#1C3487" stroke-width="1.3" stroke-linecap="round" stroke-linejoin="round"/>
<path d="M49.1503 142.423L42.7129 147.631H60.7839L67.2214 142.423H49.1503Z" fill="#1C3487" stroke="#1C3487" stroke-width="1.3" stroke-linecap="round" stroke-linejoin="round"/>
<path d="M88.7732 95H70.7021V147.631H88.7732V95Z" fill="white" stroke="#1C3487" stroke-width="1.3" stroke-linecap="round" stroke-linejoin="round"/>
<path d="M88.7732 121.319H70.7021V147.629H88.7732V121.319Z" fill="white" stroke="#1C3487" stroke-width="1.3" stroke-linecap="round" stroke-linejoin="round"/>
<path d="M88.7732 121.319H70.7021L77.1274 142.42H95.1985L88.7732 121.319Z" fill="white" stroke="#1C3487" stroke-width="1.3" stroke-linecap="round" stroke-linejoin="round"/>
<path d="M77.1274 142.423L70.7021 147.631H88.7732L95.1985 142.423H77.1274Z" fill="#1C3487" stroke="#1C3487" stroke-width="1.3" stroke-linecap="round" stroke-linejoin="round"/>
<path d="M23.7666 105.89V110.429" stroke="#EB2338" stroke-width="1.3" stroke-linecap="round" stroke-linejoin="round"/>
<path d="M51.7559 106.123V110.662" stroke="#EB2338" stroke-width="1.3" stroke-linecap="round" stroke-linejoin="round"/>
<path d="M79.7305 106.669V111.22" stroke="#EB2338" stroke-width="1.3" stroke-linecap="round" stroke-linejoin="round"/>
</svg>
