<svg width="38" height="34" viewBox="0 0 38 34" fill="none" xmlns="http://www.w3.org/2000/svg">
<path d="M18.9691 0.36468C20.3719 0.36468 21.7172 0.921925 22.7091 1.91383C23.701 2.90573 24.2582 4.25104 24.2582 5.6538C24.2582 7.05657 23.701 8.40188 22.7091 9.39378C21.7172 10.3857 20.3719 10.9429 18.9691 10.9429C17.566 10.9429 16.2204 10.3856 15.2283 9.39343C14.2362 8.40131 13.6788 7.05569 13.6788 5.65262C13.6788 4.24954 14.2362 2.90393 15.2283 1.9118C16.2204 0.919675 17.566 0.36468 18.9691 0.36468ZM18.9691 2.7373C18.5864 2.7373 18.2075 2.81268 17.8539 2.95913C17.5004 3.10558 17.1791 3.32023 16.9085 3.59083C16.6379 3.86143 16.4233 4.18268 16.2768 4.53624C16.1304 4.8898 16.055 5.26874 16.055 5.65143C16.055 6.03412 16.1304 6.41306 16.2768 6.76662C16.4233 7.12017 16.6379 7.44143 16.9085 7.71203C17.1791 7.98263 17.5004 8.19728 17.8539 8.34373C18.2075 8.49018 18.5864 8.56555 18.9691 8.56555C19.7423 8.56555 20.4838 8.25841 21.0306 7.71168C21.5773 7.16495 21.8844 6.42343 21.8844 5.65024C21.8844 4.87705 21.5773 4.13553 21.0306 3.5888C20.4838 3.04208 19.7423 2.73493 18.9691 2.73493M2.413 20.5759C2.413 20.8909 2.28789 21.1929 2.06519 21.4156C1.84249 21.6383 1.54044 21.7634 1.2255 21.7634C0.910555 21.7634 0.60851 21.6383 0.38581 21.4156C0.163111 21.1929 0.0380001 20.8909 0.0380001 20.5759V14.6717C0.0380768 14.09 0.251645 13.5285 0.638198 13.0938C1.02475 12.6591 1.5574 12.3814 2.13512 12.3133L2.413 12.2967H8.96087C8.61622 12.8934 8.40551 13.5579 8.34338 14.2442L8.32438 14.6717H2.41063L2.413 20.5759ZM36.7887 21.7634C37.1037 21.7634 37.4057 21.6383 37.6284 21.4156C37.8511 21.1929 37.9762 20.8909 37.9762 20.5759V14.6717L37.9596 14.3962C37.8921 13.818 37.6146 13.2848 37.1799 12.8978C36.7451 12.5107 36.1833 12.2968 35.6012 12.2967H28.9893C29.336 12.8976 29.5593 13.5863 29.6115 14.3178L29.6234 14.6741H35.6012V20.5759C35.6012 20.8909 35.7264 21.1929 35.9491 21.4156C36.1718 21.6383 36.4738 21.7634 36.7887 21.7634ZM24.8757 12.2967C25.4578 12.2968 26.0196 12.5107 26.4544 12.8978C26.8891 13.2848 27.1666 13.818 27.2341 14.3962L27.2484 14.6717V20.5759C27.2484 20.8909 27.1233 21.1929 26.9006 21.4156C26.6779 21.6383 26.3758 21.7634 26.0609 21.7634C25.7459 21.7634 25.4439 21.6383 25.2212 21.4156C24.9985 21.1929 24.8734 20.8909 24.8734 20.5759V14.6717H13.0767V20.5759C13.0767 20.8909 12.9516 21.1929 12.7289 21.4156C12.5062 21.6383 12.2042 21.7634 11.8892 21.7634C11.5743 21.7634 11.2723 21.6383 11.0496 21.4156C10.8269 21.1929 10.7017 20.8909 10.7017 20.5759V14.6717C10.7018 14.09 10.9154 13.5285 11.3019 13.0938C11.6885 12.6591 12.2212 12.3814 12.7989 12.3133L13.0767 12.2967H24.8757ZM35.359 6.39955C35.359 5.19426 34.8802 4.03833 34.0279 3.18606C33.1757 2.33379 32.0197 1.85499 30.8144 1.85499C29.6091 1.85499 28.4532 2.33379 27.6009 3.18606C26.7487 4.03833 26.2699 5.19426 26.2699 6.39955C26.2699 7.60485 26.7487 8.76077 27.6009 9.61305C28.4532 10.4653 29.6091 10.9441 30.8144 10.9441C32.0197 10.9441 33.1757 10.4653 34.0279 9.61305C34.8802 8.76077 35.359 7.60485 35.359 6.39955ZM28.6449 6.39955C28.6449 5.82415 28.8735 5.27231 29.2803 4.86544C29.6872 4.45857 30.239 4.22999 30.8144 4.22999C31.3898 4.22999 31.9417 4.45857 32.3485 4.86544C32.7554 5.27231 32.984 5.82415 32.984 6.39955C32.984 6.97496 32.7554 7.52679 32.3485 7.93367C31.9417 8.34054 31.3898 8.56912 30.8144 8.56912C30.239 8.56912 29.6872 8.34054 29.2803 7.93367C28.8735 7.52679 28.6449 6.97496 28.6449 6.39955ZM7.163 1.8538C8.36829 1.8538 9.52422 2.33261 10.3765 3.18488C11.2288 4.03715 11.7076 5.19307 11.7076 6.39837C11.7076 7.60366 11.2288 8.75959 10.3765 9.61186C9.52422 10.4641 8.36829 10.9429 7.163 10.9429C5.95771 10.9429 4.80178 10.4641 3.94951 9.61186C3.09724 8.75959 2.61844 7.60366 2.61844 6.39837C2.61844 5.19307 3.09724 4.03715 3.94951 3.18488C4.80178 2.33261 5.95771 1.8538 7.163 1.8538ZM7.163 4.2288C6.5876 4.2288 6.03576 4.45738 5.62889 4.86425C5.22202 5.27113 4.99344 5.82296 4.99344 6.39837C4.99344 6.97377 5.22202 7.52561 5.62889 7.93248C6.03576 8.33935 6.5876 8.56793 7.163 8.56793C7.7384 8.56793 8.29024 8.33935 8.69711 7.93248C9.10398 7.52561 9.33256 6.97377 9.33256 6.39837C9.33256 5.82296 9.10398 5.27113 8.69711 4.86425C8.29024 4.45738 7.7384 4.2288 7.163 4.2288ZM1.1875 24.1384C0.872555 24.1384 0.57051 24.2635 0.347811 24.4862C0.125111 24.7089 0 25.011 0 25.3259V27.7009C0 29.2757 0.625556 30.7859 1.73905 31.8994C2.85255 33.0129 4.36278 33.6384 5.9375 33.6384H32.0625C33.6372 33.6384 35.1474 33.0129 36.2609 31.8994C37.3744 30.7859 38 29.2757 38 27.7009V25.3259C38 25.011 37.8749 24.7089 37.6522 24.4862C37.4295 24.2635 37.1274 24.1384 36.8125 24.1384H1.1875ZM2.375 27.7009V26.5134H35.625V27.7009C35.625 28.6458 35.2497 29.5519 34.5816 30.22C33.9135 30.8881 33.0073 31.2634 32.0625 31.2634H5.9375C4.99267 31.2634 4.08653 30.8881 3.41843 30.22C2.75033 29.5519 2.375 28.6458 2.375 27.7009Z" fill="white"/>
</svg>
