<svg width="50" height="50" viewBox="0 0 50 50" fill="none" xmlns="http://www.w3.org/2000/svg">
<path d="M17.9688 0C20.9863 0 23.4375 2.45117 23.4375 5.46875V44.5312C23.4375 47.5488 20.9863 50 17.9688 50C15.1465 50 12.8223 47.8613 12.5293 45.1074C12.0215 45.2441 11.4844 45.3125 10.9375 45.3125C7.49023 45.3125 4.6875 42.5098 4.6875 39.0625C4.6875 38.3398 4.81445 37.6367 5.03906 36.9922C2.08984 35.8789 0 33.0273 0 29.6875C0 26.5723 1.82617 23.877 4.47266 22.627C3.62305 21.5625 3.125 20.2148 3.125 18.75C3.125 15.752 5.23438 13.252 8.04688 12.6367C7.89062 12.0996 7.8125 11.5234 7.8125 10.9375C7.8125 8.01758 9.82422 5.55664 12.5293 4.87305C12.8223 2.13867 15.1465 0 17.9688 0ZM32.0312 0C34.8535 0 37.168 2.13867 37.4707 4.87305C40.1855 5.55664 42.1875 8.00781 42.1875 10.9375C42.1875 11.5234 42.1094 12.0996 41.9531 12.6367C44.7656 13.2422 46.875 15.752 46.875 18.75C46.875 20.2148 46.377 21.5625 45.5273 22.627C48.1738 23.877 50 26.5723 50 29.6875C50 33.0273 47.9102 35.8789 44.9609 36.9922C45.1855 37.6367 45.3125 38.3398 45.3125 39.0625C45.3125 42.5098 42.5098 45.3125 39.0625 45.3125C38.5156 45.3125 37.9785 45.2441 37.4707 45.1074C37.1777 47.8613 34.8535 50 32.0312 50C29.0137 50 26.5625 47.5488 26.5625 44.5312V5.46875C26.5625 2.45117 29.0137 0 32.0312 0Z" fill="white"/>
</svg>
