<svg width="135" height="24" viewBox="0 0 135 24" fill="none" xmlns="http://www.w3.org/2000/svg">
<g filter="url(#filter0_d_1481_127)">
<path d="M19.4512 0L18.3012 5.7143L13.7012 16L22.9012 5.1429L19.4512 0Z" fill="#0D79A7"/>
<path d="M7.95098 0L9.10098 5.7143L13.7012 16L4.50098 5.1429L7.95098 0Z" fill="#0D79A7"/>
<path d="M7.95117 0L9.10117 5.7143L13.7014 16L18.3014 5.7143L19.4514 0H7.95117Z" fill="#49A3C9"/>
<path d="M13.7012 15.9997L9.10098 5.71398L4.50098 5.14258L13.7012 15.9997Z" fill="#035F86"/>
<path d="M13.7012 15.9997L18.3012 5.71398L22.9012 5.14258L13.7012 15.9997Z" fill="#035F86"/>
<path d="M13.7016 6.28439L9.10156 5.71289L13.7016 15.9986L18.3016 5.71289L13.7016 6.28439Z" fill="#1495CC"/>
<path d="M9.10059 5.7143L13.7007 0L18.3008 5.7143L13.6992 6.2857L9.10059 5.7143Z" fill="#A9DEF4"/>
<path d="M9.10117 5.7143L7.95117 0H13.7013L9.10117 5.7143Z" fill="#58B7DF"/>
<path d="M18.3013 5.7143L19.4513 0H13.7012L18.3013 5.7143Z" fill="#58B7DF"/>
<path d="M9.10098 5.7143L7.95098 0L4.50098 5.1429L9.10098 5.7143Z" fill="#1495CC"/>
<path d="M18.3008 5.7143L19.4508 0L22.9008 5.1429L18.3008 5.7143Z" fill="#1495CC"/>
</g>
<path d="M128.58 15.8672C128.312 15.8672 128.06 15.8456 127.824 15.8026C127.592 15.7628 127.4 15.7114 127.248 15.6484L127.725 14.0675C127.974 14.1437 128.197 14.1851 128.396 14.1918C128.598 14.1984 128.772 14.152 128.918 14.0526C129.067 13.9531 129.188 13.7841 129.281 13.5455L129.405 13.2223L126.666 5.36719H128.893L130.474 10.9751H130.554L132.15 5.36719H134.392L131.424 13.8288C131.281 14.2398 131.087 14.5978 130.842 14.9027C130.6 15.2109 130.294 15.4479 129.922 15.6136C129.551 15.7827 129.104 15.8672 128.58 15.8672Z" fill="black"/>
<path d="M126.229 5.36645V6.95735H121.516V5.36645H126.229ZM122.594 13.0028V4.81455C122.594 4.26105 122.702 3.80205 122.918 3.43745C123.136 3.07285 123.435 2.79945 123.812 2.61715C124.19 2.43485 124.62 2.34375 125.1 2.34375C125.425 2.34375 125.722 2.36855 125.99 2.41825C126.262 2.46795 126.464 2.51275 126.597 2.55255L126.219 4.14345C126.136 4.11695 126.033 4.09205 125.911 4.06885C125.791 4.04565 125.669 4.03405 125.543 4.03405C125.231 4.03405 125.014 4.10695 124.891 4.25275C124.769 4.39535 124.707 4.59585 124.707 4.85435V13.0028H122.594Z" fill="black"/>
<path d="M118.558 13.0018V5.36538H120.676V13.0018H118.558ZM119.622 4.38098C119.307 4.38098 119.037 4.27658 118.812 4.06778C118.59 3.85568 118.479 3.60218 118.479 3.30718C118.479 3.01548 118.59 2.76528 118.812 2.55648C119.037 2.34428 119.307 2.23828 119.622 2.23828C119.937 2.23828 120.205 2.34428 120.427 2.55648C120.653 2.76528 120.765 3.01548 120.765 3.30718C120.765 3.60218 120.653 3.85568 120.427 4.06778C120.205 4.27658 119.937 4.38098 119.622 4.38098Z" fill="black"/>
<path d="M109.949 15.8651V5.36513H112.037V6.64772H112.131C112.224 6.44222 112.358 6.23342 112.534 6.02132C112.713 5.80592 112.945 5.62692 113.23 5.48442C113.518 5.33852 113.876 5.26562 114.304 5.26562C114.861 5.26562 115.374 5.41153 115.845 5.70312C116.316 5.99152 116.692 6.42733 116.974 7.01073C117.255 7.59072 117.396 8.31822 117.396 9.19322C117.396 10.045 117.259 10.7642 116.984 11.3509C116.712 11.9342 116.341 12.3767 115.87 12.6783C115.403 12.9766 114.879 13.1257 114.299 13.1257C113.888 13.1257 113.538 13.0578 113.25 12.9219C112.965 12.786 112.731 12.6153 112.549 12.4098C112.367 12.201 112.227 11.9905 112.131 11.7784H112.067V15.8651H109.949ZM112.022 9.18323C112.022 9.63733 112.085 10.0334 112.211 10.3714C112.337 10.7095 112.519 10.973 112.758 11.1619C112.996 11.3475 113.286 11.4403 113.628 11.4403C113.972 11.4403 114.264 11.3459 114.503 11.157C114.741 10.9647 114.922 10.6996 115.045 10.3615C115.171 10.0201 115.234 9.62743 115.234 9.18323C115.234 8.74243 115.172 8.35462 115.05 8.01992C114.927 7.68512 114.746 7.42332 114.508 7.23442C114.269 7.04552 113.976 6.95103 113.628 6.95103C113.283 6.95103 112.991 7.04212 112.753 7.22442C112.517 7.40672 112.337 7.66522 112.211 8.00002C112.085 8.33482 112.022 8.72923 112.022 9.18323Z" fill="black"/>
<path d="M105.063 13.1506C104.29 13.1506 103.623 12.9865 103.059 12.6584C102.499 12.3269 102.067 11.8662 101.762 11.2763C101.457 10.683 101.304 9.99533 101.304 9.21313C101.304 8.42423 101.457 7.73482 101.762 7.14492C102.067 6.55162 102.499 6.09092 103.059 5.76283C103.623 5.43133 104.29 5.26562 105.063 5.26562C105.835 5.26562 106.501 5.43133 107.061 5.76283C107.625 6.09092 108.059 6.55162 108.364 7.14492C108.669 7.73482 108.821 8.42423 108.821 9.21313C108.821 9.99533 108.669 10.683 108.364 11.2763C108.059 11.8662 107.625 12.3269 107.061 12.6584C106.501 12.9865 105.835 13.1506 105.063 13.1506ZM105.073 11.5099C105.424 11.5099 105.717 11.4105 105.953 11.2116C106.188 11.0095 106.365 10.7344 106.485 10.3864C106.607 10.0384 106.669 9.64232 106.669 9.19823C106.669 8.75402 106.607 8.35802 106.485 8.00992C106.365 7.66192 106.188 7.38682 105.953 7.18472C105.717 6.98252 105.424 6.88142 105.073 6.88142C104.718 6.88142 104.42 6.98252 104.178 7.18472C103.939 7.38682 103.759 7.66192 103.636 8.00992C103.517 8.35802 103.457 8.75402 103.457 9.19823C103.457 9.64232 103.517 10.0384 103.636 10.3864C103.759 10.7344 103.939 11.0095 104.178 11.2116C104.42 11.4105 104.718 11.5099 105.073 11.5099Z" fill="black"/>
<path d="M95.244 8.58741V13.0021H93.126V2.82031H95.185V6.71311H95.274C95.447 6.26231 95.725 5.90931 96.109 5.65411C96.494 5.39561 96.976 5.26631 97.556 5.26631C98.086 5.26631 98.549 5.38231 98.943 5.61431C99.341 5.84301 99.649 6.17281 99.868 6.60371C100.09 7.03131 100.199 7.54331 100.196 8.13991V13.0021H98.078V8.51781C98.081 8.04711 97.962 7.68091 97.72 7.41901C97.482 7.15721 97.147 7.02631 96.716 7.02631C96.428 7.02631 96.172 7.08761 95.95 7.21021C95.732 7.33291 95.559 7.51181 95.433 7.74721C95.311 7.97921 95.248 8.25921 95.244 8.58741Z" fill="black"/>
<path d="M89.766 5.74719C89.726 5.34609 89.555 5.03459 89.254 4.81249C88.952 4.59039 88.543 4.47939 88.026 4.47939C87.674 4.47939 87.3776 4.52909 87.1357 4.62859C86.8937 4.72469 86.7081 4.85889 86.5788 5.03119C86.4529 5.20359 86.3899 5.39909 86.3899 5.61789C86.3833 5.80019 86.4214 5.95929 86.5043 6.09519C86.5904 6.23109 86.7081 6.34869 86.8572 6.44819C87.0064 6.54429 87.1787 6.62879 87.3743 6.70169C87.57 6.77129 87.779 6.83099 88.001 6.88069L88.915 7.09939C89.36 7.19889 89.767 7.33139 90.138 7.49719C90.51 7.66289 90.831 7.86669 91.103 8.10869C91.375 8.35059 91.585 8.63569 91.734 8.96379C91.887 9.29189 91.965 9.66809 91.968 10.0923C91.965 10.7154 91.806 11.2557 91.491 11.7131C91.179 12.1671 90.728 12.5201 90.138 12.772C89.552 13.0206 88.844 13.1449 88.016 13.1449C87.1937 13.1449 86.4777 13.0189 85.8679 12.767C85.2614 12.5152 84.7874 12.1423 84.446 11.6484C84.108 11.1513 83.9306 10.5365 83.9141 9.80399H85.9972C86.0204 10.1454 86.1181 10.4304 86.2905 10.6591C86.4661 10.8845 86.6998 11.0552 86.9915 11.1712C87.2865 11.2839 87.62 11.3402 87.991 11.3402C88.355 11.3402 88.672 11.2872 88.94 11.1811C89.212 11.075 89.423 10.9276 89.572 10.7386C89.721 10.5497 89.795 10.3326 89.795 10.0874C89.795 9.85869 89.728 9.66639 89.592 9.51069C89.459 9.35489 89.263 9.22229 89.005 9.11289C88.75 9.00359 88.437 8.90409 88.065 8.81459L86.9567 8.53619C86.0982 8.32739 85.4205 8.00089 84.9233 7.55679C84.4261 7.11269 84.1792 6.51439 84.1825 5.76209C84.1792 5.14559 84.3433 4.60699 84.6747 4.14629C85.0095 3.68559 85.4685 3.32599 86.0518 3.06749C86.6352 2.80889 87.2981 2.67969 88.04 2.67969C88.796 2.67969 89.456 2.80889 90.019 3.06749C90.586 3.32599 91.027 3.68559 91.342 4.14629C91.656 4.60699 91.819 5.14059 91.829 5.74719H89.766Z" fill="black"/>
<path d="M75.7334 13.0036V5.36721H77.7867V6.69961H77.8662C78.0054 6.22561 78.2391 5.86771 78.5672 5.62571C78.8953 5.38041 79.2732 5.25781 79.7007 5.25781C79.8068 5.25781 79.9211 5.26441 80.0438 5.27771C80.1664 5.29101 80.2741 5.30921 80.3669 5.33241V7.21161C80.2675 7.18181 80.1299 7.15531 79.9543 7.13211C79.7786 7.10891 79.6179 7.09731 79.472 7.09731C79.1605 7.09731 78.8821 7.16521 78.6368 7.30111C78.3948 7.43371 78.2026 7.61931 78.0601 7.85801C77.9209 8.09661 77.8513 8.37171 77.8513 8.68321V13.0036H75.7334Z" fill="black"/>
<path d="M70.8483 13.1506C70.076 13.1506 69.4082 12.9865 68.8447 12.6584C68.2846 12.3269 67.8521 11.8662 67.5471 11.2763C67.2422 10.683 67.0898 9.99533 67.0898 9.21313C67.0898 8.42423 67.2422 7.73482 67.5471 7.14492C67.8521 6.55162 68.2846 6.09092 68.8447 5.76283C69.4082 5.43133 70.076 5.26562 70.8483 5.26562C71.6205 5.26562 72.2867 5.43133 72.8469 5.76283C73.4103 6.09092 73.8445 6.55162 74.1494 7.14492C74.4543 7.73482 74.6068 8.42423 74.6068 9.21313C74.6068 9.99533 74.4543 10.683 74.1494 11.2763C73.8445 11.8662 73.4103 12.3269 72.8469 12.6584C72.2867 12.9865 71.6205 13.1506 70.8483 13.1506ZM70.8582 11.5099C71.2095 11.5099 71.5029 11.4105 71.7382 11.2116C71.9735 11.0095 72.1508 10.7344 72.2702 10.3864C72.3928 10.0384 72.4541 9.64232 72.4541 9.19823C72.4541 8.75402 72.3928 8.35802 72.2702 8.00992C72.1508 7.66192 71.9735 7.38682 71.7382 7.18472C71.5029 6.98252 71.2095 6.88142 70.8582 6.88142C70.5036 6.88142 70.2053 6.98252 69.9633 7.18472C69.7247 7.38682 69.5441 7.66192 69.4214 8.00992C69.3021 8.35802 69.2425 8.75402 69.2425 9.19823C69.2425 9.64232 69.3021 10.0384 69.4214 10.3864C69.5441 10.7344 69.7247 11.0095 69.9633 11.2116C70.2053 11.4105 70.5036 11.5099 70.8582 11.5099Z" fill="black"/>
<path d="M66.6271 5.36645V6.95735H61.9141V5.36645H66.6271ZM62.9929 13.0028V4.81455C62.9929 4.26105 63.1006 3.80205 63.3161 3.43745C63.5348 3.07285 63.8331 2.79945 64.2109 2.61715C64.5888 2.43485 65.018 2.34375 65.4986 2.34375C65.8234 2.34375 66.12 2.36855 66.3885 2.41825C66.6603 2.46795 66.8625 2.51275 66.995 2.55255L66.6172 4.14345C66.5343 4.11695 66.4316 4.09205 66.3089 4.06885C66.1896 4.04565 66.067 4.03405 65.9411 4.03405C65.6295 4.03405 65.4124 4.10695 65.2898 4.25275C65.1671 4.39535 65.1058 4.59585 65.1058 4.85435V13.0028H62.9929Z" fill="black"/>
<path d="M58.4006 5.36466V6.95556H53.8018V5.36466H58.4006ZM54.8459 3.53516H56.9638V10.6545C56.9638 10.85 56.9936 11.0025 57.0533 11.1119C57.1129 11.2179 57.1958 11.2925 57.3018 11.3356C57.4112 11.3787 57.5372 11.4002 57.6797 11.4002C57.7791 11.4002 57.8786 11.3919 57.978 11.3754C58.0774 11.3555 58.1536 11.3406 58.2067 11.3306L58.5398 12.9066C58.4337 12.9397 58.2846 12.9779 58.0923 13.021C57.9001 13.0674 57.6664 13.0955 57.3913 13.1055C56.8809 13.1254 56.4335 13.0574 56.049 12.9016C55.6678 12.7459 55.3712 12.5039 55.1591 12.1758C54.947 11.8477 54.8426 11.4334 54.8459 10.9329V3.53516Z" fill="black"/>
<path d="M52.8923 2.82031V13.0021H50.7744V2.82031H52.8923Z" fill="black"/>
<path d="M47.2104 13.0018V5.36538H49.3283V13.0018H47.2104ZM48.2743 4.38098C47.9595 4.38098 47.6893 4.27658 47.464 4.06778C47.2419 3.85568 47.1309 3.60218 47.1309 3.30718C47.1309 3.01548 47.2419 2.76528 47.464 2.55648C47.6893 2.34428 47.9595 2.23828 48.2743 2.23828C48.5892 2.23828 48.8577 2.34428 49.0797 2.55648C49.3051 2.76528 49.4178 3.01548 49.4178 3.30718C49.4178 3.60218 49.3051 3.85568 49.0797 4.06778C48.8577 4.27658 48.5892 4.38098 48.2743 4.38098Z" fill="black"/>
<path d="M43.648 9.75209V5.36719H45.7659V13.0036H43.7325V11.6165H43.653C43.4806 12.0639 43.1939 12.4235 42.7929 12.6953C42.3951 12.9671 41.9096 13.103 41.3362 13.103C40.8258 13.103 40.3767 12.987 39.9889 12.755C39.6011 12.523 39.2978 12.1932 39.0791 11.7656C38.8637 11.3381 38.7543 10.826 38.751 10.2294V5.36719H40.8689V9.85159C40.8722 10.3023 40.9932 10.6586 41.2318 10.9205C41.4704 11.1823 41.7903 11.3132 42.1913 11.3132C42.4465 11.3132 42.6852 11.2552 42.9072 11.1392C43.1293 11.0199 43.3083 10.8442 43.4441 10.6122C43.5834 10.3802 43.6513 10.0935 43.648 9.75209Z" fill="black"/>
<path d="M29.7852 13.0021V2.82031H33.8619C34.6109 2.82031 35.2357 2.93131 35.7362 3.15341C36.2366 3.37551 36.6128 3.68371 36.8647 4.07811C37.1166 4.46921 37.2425 4.92001 37.2425 5.43041C37.2425 5.82811 37.163 6.17781 37.0039 6.47941C36.8448 6.77771 36.6261 7.02301 36.3477 7.21521C36.0726 7.40411 35.7577 7.53841 35.4031 7.61791V7.71731C35.7908 7.73391 36.1538 7.84331 36.4918 8.04551C36.8332 8.24761 37.11 8.53101 37.3221 8.89561C37.5342 9.25691 37.6403 9.68771 37.6403 10.1882C37.6403 10.7285 37.506 11.2107 37.2376 11.6349C36.9724 12.0559 36.5797 12.389 36.0593 12.6342C35.5389 12.8795 34.8976 13.0021 34.1353 13.0021H29.7852ZM31.9379 11.2422H33.6928C34.2927 11.2422 34.7302 11.1278 35.0053 10.8991C35.2804 10.6671 35.418 10.3589 35.418 9.97441C35.418 9.69271 35.35 9.44411 35.2141 9.22871C35.0782 9.01331 34.8844 8.84421 34.6325 8.72161C34.3839 8.59901 34.0872 8.53761 33.7425 8.53761H31.9379V11.2422ZM31.9379 7.08101H33.5337C33.8287 7.08101 34.0906 7.02961 34.3192 6.92681C34.5513 6.82081 34.7335 6.67161 34.8661 6.47941C35.002 6.28721 35.07 6.05681 35.07 5.78841C35.07 5.42051 34.939 5.12381 34.6772 4.89841C34.4187 4.67311 34.0508 4.56041 33.5735 4.56041H31.9379V7.08101Z" fill="black"/>
<defs>
<filter id="filter0_d_1481_127" x="0.500977" y="0" width="26.4004" height="24" filterUnits="userSpaceOnUse" color-interpolation-filters="sRGB">
<feFlood flood-opacity="0" result="BackgroundImageFix"/>
<feColorMatrix in="SourceAlpha" type="matrix" values="0 0 0 0 0 0 0 0 0 0 0 0 0 0 0 0 0 0 127 0" result="hardAlpha"/>
<feOffset dy="4"/>
<feGaussianBlur stdDeviation="2"/>
<feComposite in2="hardAlpha" operator="out"/>
<feColorMatrix type="matrix" values="0 0 0 0 0 0 0 0 0 0 0 0 0 0 0 0 0 0 0.25 0"/>
<feBlend mode="normal" in2="BackgroundImageFix" result="effect1_dropShadow_1481_127"/>
<feBlend mode="normal" in="SourceGraphic" in2="effect1_dropShadow_1481_127" result="shape"/>
</filter>
</defs>
</svg>
