<svg width="50" height="50" viewBox="0 0 50 50" fill="none" xmlns="http://www.w3.org/2000/svg">
<path d="M45.3106 0.597783C46.2383 -0.232261 47.6542 -0.1932 48.5331 0.68567L49.3143 1.46689C50.1932 2.34576 50.2323 3.76171 49.4022 4.68941L41.0237 14.0542C40.7698 14.3374 40.6233 14.7085 40.6233 15.0991V17.1889C40.6233 18.0482 39.9202 18.7513 39.0609 18.7513H37.518C37.0688 18.7513 36.6488 18.9369 36.3559 19.2689L9.83357 48.9161C9.2086 49.6094 8.32973 50 7.40203 50C6.54269 50 5.71265 49.6582 5.10721 49.043L0.947226 44.8928C0.341782 44.2776 0 43.4573 0 42.598C0 41.6703 0.390609 40.7914 1.08394 40.1762L11.9819 30.4305C12.3139 30.1376 12.4995 29.7079 12.4995 29.2684V26.5635C12.4995 25.7041 13.2026 25.0011 14.0619 25.0011H17.4407C17.8215 25.0011 18.1926 24.8546 18.4855 24.6007L45.3106 0.597783ZM42.1857 28.1259C42.5373 28.1259 42.84 28.3603 42.9376 28.6923L44.3829 33.7409L49.4315 35.1862C49.7635 35.2838 49.9979 35.5865 49.9979 35.9381C49.9979 36.2896 49.7635 36.5924 49.4315 36.69L44.3829 38.1353L42.9376 43.1839C42.84 43.5159 42.5373 43.7503 42.1857 43.7503C41.8342 43.7503 41.5315 43.5159 41.4338 43.1839L39.9886 38.1353L34.9399 36.69C34.6079 36.5924 34.3736 36.2896 34.3736 35.9381C34.3736 35.5865 34.6079 35.2838 34.9399 35.1862L39.9886 33.7409L41.4338 28.6923C41.5315 28.3603 41.8342 28.1259 42.1857 28.1259ZM8.56409 6.81822L10.0093 11.8668L15.058 13.3121C15.39 13.4097 15.6243 13.7125 15.6243 14.064C15.6243 14.4156 15.39 14.7183 15.058 14.8159L10.0093 16.2612L8.56409 21.3098C8.46644 21.6418 8.16372 21.8762 7.81217 21.8762C7.46062 21.8762 7.1579 21.6418 7.06025 21.3098L5.615 16.2612L0.566382 14.8159C0.234365 14.7183 0 14.4156 0 14.064C0 13.7125 0.234365 13.4097 0.566382 13.3121L5.615 11.8668L7.06025 6.81822C7.1579 6.48621 7.46062 6.25184 7.81217 6.25184C8.16372 6.25184 8.46644 6.48621 8.56409 6.81822ZM21.8741 0.00210457C22.2354 0.00210457 22.5479 0.246235 22.6358 0.597783L23.2998 3.26369L25.9657 3.92772C26.3173 4.01561 26.5614 4.32809 26.5614 4.68941C26.5614 5.05072 26.3173 5.36321 25.9657 5.45109L23.2998 6.11513L22.6358 8.78103C22.5479 9.13258 22.2354 9.37671 21.8741 9.37671C21.5128 9.37671 21.2003 9.13258 21.1124 8.78103L20.4484 6.11513L17.7825 5.45109C17.4309 5.36321 17.1868 5.05072 17.1868 4.68941C17.1868 4.32809 17.4309 4.01561 17.7825 3.92772L20.4484 3.26369L21.1124 0.597783C21.2003 0.246235 21.5128 0.00210457 21.8741 0.00210457Z" fill="white"/>
</svg>
