<svg width="55" height="73" viewBox="0 0 55 73" fill="none" xmlns="http://www.w3.org/2000/svg">
<g clip-path="url(#clip0_1519_127)">
<path d="M37.7899 20.2659C37.7899 17.4155 36.6575 14.6818 34.642 12.6663C32.6264 10.6507 29.8927 9.51837 27.0423 9.51837C24.1919 9.51837 21.4582 10.6507 19.4426 12.6663C17.4271 14.6818 16.2947 17.4155 16.2947 20.2659" stroke="white" stroke-width="2.24782" stroke-miterlimit="10"/>
<path d="M30.6245 20.2665C30.6168 19.3214 30.236 18.4177 29.565 17.7522C28.8941 17.0866 27.9873 16.7132 27.0422 16.7132C26.0971 16.7132 25.1903 17.0866 24.5193 17.7522C23.8484 18.4177 23.4675 19.3214 23.4598 20.2665" stroke="white" stroke-width="1.96684" stroke-miterlimit="10"/>
<path d="M34.641 41.376L32.1078 38.8428L34.641 41.376ZM27.0414 44.5235L27.0414 40.9411L27.0414 44.5235ZM19.4419 41.376L21.9751 38.8428L19.4419 41.376Z" fill="white"/>
<path d="M34.641 41.376L32.1078 38.8428M27.0414 44.5235V40.9411M19.4419 41.376L21.9751 38.8428" stroke="white" stroke-width="1.96684" stroke-miterlimit="10" stroke-linecap="round"/>
<path d="M23.4587 20.2651L23.4582 32.2065C23.4581 32.8398 23.2065 33.4472 22.7587 33.895C22.3108 34.3428 21.7035 34.5945 21.0701 34.5945L18.68 34.5972C18.3663 34.5972 18.0557 34.5354 17.7659 34.4154C17.476 34.2954 17.2127 34.1194 16.9909 33.8976C16.7691 33.6758 16.5932 33.4125 16.4731 33.1227C16.3531 32.8329 16.2913 32.5223 16.2914 32.2086L16.2935 20.2646M37.7886 20.2646L37.7907 32.2086C37.7908 32.5223 37.729 32.8329 37.609 33.1227C37.489 33.4125 37.313 33.6758 37.0912 33.8976C36.8694 34.1194 36.6061 34.2954 36.3163 34.4154C36.0264 34.5354 35.7158 34.5972 35.4021 34.5972L33.0141 34.5966C32.7004 34.5967 32.3898 34.5349 32.1 34.4149C31.8102 34.2949 31.5468 34.1189 31.325 33.8971C31.1032 33.6753 30.9273 33.412 30.8073 33.1222C30.6872 32.8324 30.6255 32.5217 30.6255 32.208L30.6234 20.2651M16.3584 28.6236L23.5236 28.6241M30.6883 28.6241L37.8535 28.6236" stroke="white" stroke-width="2.24782" stroke-linejoin="round"/>
</g>
<path d="M19.5 54C19.5 53.337 19.7634 52.7011 20.2322 52.2322C20.7011 51.7634 21.337 51.5 22 51.5C22.663 51.5 23.2989 51.7634 23.7678 52.2322C24.2366 52.7011 24.5 53.337 24.5 54C24.5 54.663 24.2366 55.2989 23.7678 55.7678C23.2989 56.2366 22.663 56.5 22 56.5C21.337 56.5 20.7011 56.2366 20.2322 55.7678C19.7634 55.2989 19.5 54.663 19.5 54ZM22 49C20.6739 49 19.4021 49.5268 18.4645 50.4645C17.5268 51.4021 17 52.6739 17 54C17 55.3261 17.5268 56.5979 18.4645 57.5355C19.4021 58.4732 20.6739 59 22 59C23.3261 59 24.5979 58.4732 25.5355 57.5355C26.4732 56.5979 27 55.3261 27 54C27 52.6739 26.4732 51.4021 25.5355 50.4645C24.5979 49.5268 23.3261 49 22 49ZM32 55.25C32 54.9185 32.1317 54.6005 32.3661 54.3661C32.6005 54.1317 32.9185 54 33.25 54C33.5815 54 33.8995 54.1317 34.1339 54.3661C34.3683 54.6005 34.5 54.9185 34.5 55.25C34.5 55.5815 34.3683 55.8995 34.1339 56.1339C33.8995 56.3683 33.5815 56.5 33.25 56.5C32.9185 56.5 32.6005 56.3683 32.3661 56.1339C32.1317 55.8995 32 55.5815 32 55.25ZM33.25 51.5C32.2554 51.5 31.3016 51.8951 30.5983 52.5983C29.8951 53.3016 29.5 54.2554 29.5 55.25C29.5 56.2446 29.8951 57.1984 30.5983 57.9017C31.3016 58.6049 32.2554 59 33.25 59C34.2446 59 35.1984 58.6049 35.9017 57.9017C36.6049 57.1984 37 56.2446 37 55.25C37 54.2554 36.6049 53.3016 35.9017 52.5983C35.1984 51.8951 34.2446 51.5 33.25 51.5ZM14.5 64.625C14.5 62.9 15.9 61.5 17.625 61.5H26.375C28.1 61.5 29.5 62.9 29.5 64.625V64.745C29.4983 64.8361 29.4916 64.9271 29.48 65.0175C29.4569 65.2364 29.4193 65.4535 29.3675 65.6675C29.1987 66.3589 28.8973 67.011 28.48 67.5875C27.42 69.045 25.445 70.25 22 70.25C18.555 70.25 16.58 69.045 15.52 67.5875C14.9738 66.8297 14.6297 65.9452 14.52 65.0175L14.5 64.7425V64.625ZM17 64.69L17.005 64.7575C17.0117 64.8292 17.0308 64.9367 17.0625 65.08C17.13 65.3625 17.2675 65.74 17.5425 66.1175C18.0425 66.8075 19.1925 67.75 22 67.75C24.8075 67.75 25.955 66.8075 26.4575 66.1175C26.758 65.6971 26.9449 65.2063 27 64.6925V64.625C27 64.4592 26.9342 64.3003 26.8169 64.1831C26.6997 64.0658 26.5408 64 26.375 64H17.625C17.4592 64 17.3003 64.0658 17.1831 64.1831C17.0658 64.3003 17 64.4592 17 64.625V64.69ZM33.2475 69C32.3625 68.9967 31.585 68.9133 30.915 68.75C31.3704 68.0275 31.6945 67.2303 31.8725 66.395C32.2592 66.4617 32.7175 66.4967 33.2475 66.5C35.4725 66.5 36.3175 65.82 36.6475 65.4075C36.8284 65.1776 36.9487 64.9059 36.9975 64.6175V64.605C36.9923 64.4427 36.9242 64.2889 36.8075 64.1759C36.6909 64.063 36.5349 63.9999 36.3725 64H31.965C31.8661 63.1054 31.5531 62.2479 31.0525 61.5H36.375C38.1 61.5 39.5 62.9 39.5 64.625V64.6675C39.4978 64.7452 39.4919 64.8228 39.4825 64.9C39.3836 65.6566 39.0793 66.3717 38.6025 66.9675C37.68 68.1175 36.0275 69 33.25 69" fill="white"/>
<defs>
<clipPath id="clip0_1519_127">
<rect width="38.2129" height="38.2129" fill="white" transform="translate(0.0209961 27.0215) rotate(-45)"/>
</clipPath>
</defs>
</svg>
