<svg width="44" height="41" viewBox="0 0 44 41" fill="none" xmlns="http://www.w3.org/2000/svg">
<path d="M13.2 0C11.0995 0 9.085 0.824532 7.59971 2.29221C6.11443 3.75988 5.28 5.75048 5.28 7.82609C5.28 9.90169 6.11443 11.8923 7.59971 13.36C9.085 14.8276 11.0995 15.6522 13.2 15.6522C15.3005 15.6522 17.315 14.8276 18.8003 13.36C20.2856 11.8923 21.12 9.90169 21.12 7.82609C21.12 5.75048 20.2856 3.75988 18.8003 2.29221C17.315 0.824532 15.3005 0 13.2 0ZM7.92 7.82609C7.92 7.14093 8.05657 6.46248 8.32192 5.82948C8.58726 5.19647 8.97618 4.62131 9.46648 4.13683C9.95677 3.65235 10.5388 3.26804 11.1794 3.00585C11.82 2.74365 12.5066 2.6087 13.2 2.6087C13.8934 2.6087 14.58 2.74365 15.2206 3.00585C15.8612 3.26804 16.4432 3.65235 16.9335 4.13683C17.4238 4.62131 17.8127 5.19647 18.0781 5.82948C18.3434 6.46248 18.48 7.14093 18.48 7.82609C18.48 9.20982 17.9237 10.5369 16.9335 11.5153C15.9433 12.4938 14.6003 13.0435 13.2 13.0435C11.7997 13.0435 10.4567 12.4938 9.46648 11.5153C8.47628 10.5369 7.92 9.20982 7.92 7.82609ZM31.68 3.47826C30.8711 3.47826 30.07 3.6357 29.3227 3.9416C28.5753 4.2475 27.8962 4.69586 27.3242 5.26109C26.7522 5.82632 26.2985 6.49734 25.9889 7.23584C25.6793 7.97434 25.52 8.76587 25.52 9.56522C25.52 10.3646 25.6793 11.1561 25.9889 11.8946C26.2985 12.6331 26.7522 13.3041 27.3242 13.8693C27.8962 14.4346 28.5753 14.8829 29.3227 15.1888C30.07 15.4947 30.8711 15.6522 31.68 15.6522C33.3137 15.6522 34.8806 15.0109 36.0358 13.8693C37.191 12.7278 37.84 11.1796 37.84 9.56522C37.84 7.95086 37.191 6.40262 36.0358 5.26109C34.8806 4.11956 33.3137 3.47826 31.68 3.47826ZM28.16 9.56522C28.16 8.64272 28.5309 7.75802 29.191 7.10572C29.8511 6.45342 30.7464 6.08696 31.68 6.08696C32.6136 6.08696 33.5089 6.45342 34.169 7.10572C34.8291 7.75802 35.2 8.64272 35.2 9.56522C35.2 10.4877 34.8291 11.3724 34.169 12.0247C33.5089 12.677 32.6136 13.0435 31.68 13.0435C30.7464 13.0435 29.8511 12.677 29.191 12.0247C28.5309 11.3724 28.16 10.4877 28.16 9.56522ZM0 23.0435C0 22.0057 0.417213 21.0104 1.15986 20.2765C1.9025 19.5427 2.90974 19.1304 3.96 19.1304H22.44C22.7897 19.1316 23.1258 19.1745 23.4485 19.2591C22.6627 19.9991 21.9722 20.8321 21.3928 21.7391H3.96C3.60991 21.7391 3.27417 21.8766 3.02662 22.1212C2.77907 22.3658 2.64 22.6975 2.64 23.0435V23.9357L2.65584 24.1096C2.67344 24.273 2.70864 24.5183 2.78608 24.8191C2.99128 25.6235 3.35621 26.3796 3.85968 27.0435C5.04592 28.6035 7.58208 30.4348 13.2 30.4348C15.9139 30.4348 17.908 30.0087 19.3776 29.3913C19.4248 30.2831 19.5646 31.1677 19.7947 32.0313C18.0611 32.6574 15.8946 33.0435 13.2 33.0435C6.93792 33.0435 3.53408 30.9617 1.74944 28.6087C1.03441 27.6669 0.516283 26.5939 0.22528 25.4522C0.110098 24.9976 0.0364686 24.5337 0.00528004 24.0661L0 23.967V23.0435ZM44 28.6957C44 31.6938 42.7947 34.5691 40.6493 36.689C38.5039 38.809 35.5941 40 32.56 40C29.5259 40 26.6161 38.809 24.4707 36.689C22.3253 34.5691 21.12 31.6938 21.12 28.6957C21.12 25.6976 22.3253 22.8222 24.4707 20.7023C26.6161 18.5823 29.5259 17.3913 32.56 17.3913C35.5941 17.3913 38.5039 18.5823 40.6493 20.7023C42.7947 22.8222 44 25.6976 44 28.6957Z" fill="white"/>
<path d="M31.0252 38V35.85C30.1419 35.65 29.3795 35.2667 28.7382 34.7C28.0969 34.1333 27.6259 33.3333 27.3252 32.3L29.1752 31.55C29.4252 32.35 29.7962 32.9583 30.2882 33.375C30.7802 33.7917 31.4259 34 32.2252 34C32.9085 34 33.4879 33.846 33.9632 33.538C34.4385 33.23 34.6759 32.7507 34.6752 32.1C34.6752 31.5167 34.4919 31.0543 34.1252 30.713C33.7585 30.3717 32.9085 29.984 31.5752 29.55C30.1419 29.1 29.1585 28.5627 28.6252 27.938C28.0919 27.3133 27.8252 26.5507 27.8252 25.65C27.8252 24.5667 28.1752 23.725 28.8752 23.125C29.5752 22.525 30.2919 22.1833 31.0252 22.1V20H33.0252V22.1C33.8585 22.2333 34.5462 22.5377 35.0882 23.013C35.6302 23.4883 36.0259 24.0673 36.2752 24.75L34.4252 25.55C34.2252 25.0167 33.9419 24.6167 33.5752 24.35C33.2085 24.0833 32.7085 23.95 32.0752 23.95C31.3419 23.95 30.7835 24.1127 30.4002 24.438C30.0169 24.7633 29.8252 25.1673 29.8252 25.65C29.8252 26.2 30.0752 26.6333 30.5752 26.95C31.0752 27.2667 31.9419 27.6 33.1752 27.95C34.3252 28.2833 35.1962 28.8127 35.7882 29.538C36.3802 30.2633 36.6759 31.1007 36.6752 32.05C36.6752 33.2333 36.3252 34.1333 35.6252 34.75C34.9252 35.3667 34.0585 35.75 33.0252 35.9V38H31.0252Z" fill="#1C3487"/>
</svg>
