<svg width="40" height="40" viewBox="0 0 40 40" fill="none" xmlns="http://www.w3.org/2000/svg">
<path d="M36.0789 4.2056C36.0656 4.14149 36.0343 4.0825 35.9886 4.03558C35.9429 3.98866 35.8848 3.95576 35.8211 3.94076C31.5726 2.90169 21.7586 6.60404 16.4359 11.9228C15.4873 12.8636 14.6223 13.8852 13.8507 14.9759C12.2101 14.8275 10.5695 14.9525 9.17262 15.5619C5.22809 17.2962 4.08043 21.8259 3.76012 23.7704C3.74277 23.877 3.75018 23.9861 3.78179 24.0893C3.81339 24.1926 3.86834 24.2871 3.94238 24.3657C4.01641 24.4442 4.10754 24.5047 4.20871 24.5424C4.30987 24.5801 4.41836 24.5939 4.52575 24.5829L10.8593 23.8876C10.8637 24.3653 10.8924 24.8425 10.9453 25.3173C10.9783 25.6455 11.1248 25.9519 11.3593 26.1837L13.8117 28.6361C14.0437 28.8708 14.3504 29.0173 14.6789 29.0501C15.1508 29.1028 15.6251 29.1314 16.1 29.1361L15.4054 35.4642C15.3946 35.5714 15.4086 35.6798 15.4462 35.7808C15.4839 35.8818 15.5443 35.9727 15.6228 36.0467C15.7013 36.1206 15.7957 36.1755 15.8987 36.2071C16.0018 36.2387 16.1107 36.2462 16.2172 36.229C18.1625 35.9165 22.7015 34.7689 24.4257 30.8251C25.0351 29.4267 25.1601 27.7947 25.0195 26.1619C26.1134 25.391 27.1379 24.526 28.0812 23.5767C33.4234 18.2642 37.1023 8.66576 36.0789 4.2056ZM23.3328 16.6947C22.8662 16.2282 22.5484 15.6337 22.4196 14.9866C22.2908 14.3395 22.3568 13.6687 22.6093 13.0591C22.8618 12.4495 23.2893 11.9284 23.8379 11.5619C24.3866 11.1953 25.0316 10.9996 25.6914 10.9996C26.3512 10.9996 26.9962 11.1953 27.5448 11.5619C28.0934 11.9284 28.521 12.4495 28.7734 13.0591C29.0259 13.6687 29.0919 14.3395 28.9632 14.9866C28.8344 15.6337 28.5166 16.2282 28.05 16.6947C27.7405 17.0048 27.3728 17.2509 26.9681 17.4188C26.5634 17.5867 26.1295 17.6731 25.6914 17.6731C25.2532 17.6731 24.8194 17.5867 24.4146 17.4188C24.0099 17.2509 23.6423 17.0048 23.3328 16.6947Z" stroke="white" stroke-width="2.5" stroke-linecap="round" stroke-linejoin="round"/>
<path d="M8.56562 27.5C7.78681 27.5956 7.06226 27.9487 6.50703 28.5031C5.13047 29.8844 5 35 5 35C5 35 10.1187 34.8695 11.4961 33.4914C12.0528 32.9371 12.4065 32.2113 12.5 31.4313" stroke="white" stroke-width="2.5" stroke-linecap="round" stroke-linejoin="round"/>
</svg>
