<svg width="203" height="42" viewBox="0 0 203 42" fill="none" xmlns="http://www.w3.org/2000/svg">
<path d="M19.6894 3.85928C20.4091 2.32525 22.5909 2.32525 23.3106 3.85928L27.0183 11.7621C27.3098 12.3834 27.8996 12.8118 28.5806 12.8971L37.2423 13.9812C38.9236 14.1917 39.5979 16.2667 38.3613 17.4252L31.9911 23.3935C31.4902 23.8628 31.265 24.5561 31.3943 25.2301L33.0399 33.8029C33.3593 35.467 31.5942 36.7494 30.1102 35.9314L22.4655 31.7172C21.8645 31.3859 21.1355 31.3859 20.5345 31.7172L12.8898 35.9314C11.4058 36.7494 9.64068 35.467 9.96011 33.8029L11.6057 25.2301C11.735 24.5561 11.5098 23.8628 11.0089 23.3935L4.63869 17.4252C3.40214 16.2667 4.07637 14.1917 5.75772 13.9812L14.4194 12.8971C15.1004 12.8118 15.6902 12.3834 15.9817 11.7621L19.6894 3.85928Z" fill="#F4AF29"/>
<path d="M59.6894 3.85928C60.4091 2.32525 62.5909 2.32525 63.3106 3.85928L67.0183 11.7621C67.3098 12.3834 67.8996 12.8118 68.5806 12.8971L77.2423 13.9812C78.9236 14.1917 79.5979 16.2667 78.3613 17.4252L71.9911 23.3935C71.4902 23.8628 71.265 24.5561 71.3943 25.2301L73.0399 33.8029C73.3593 35.467 71.5942 36.7494 70.1102 35.9314L62.4655 31.7172C61.8645 31.3859 61.1355 31.3859 60.5345 31.7172L52.8898 35.9314C51.4058 36.7494 49.6407 35.467 49.9601 33.8029L51.6057 25.2301C51.735 24.5561 51.5098 23.8628 51.0089 23.3935L44.6387 17.4252C43.4021 16.2667 44.0764 14.1917 45.7577 13.9812L54.4194 12.8971C55.1004 12.8118 55.6902 12.3834 55.9817 11.7621L59.6894 3.85928Z" fill="#F4AF29"/>
<path d="M99.6894 3.85928C100.409 2.32525 102.591 2.32525 103.311 3.85928L107.018 11.7621C107.31 12.3834 107.9 12.8118 108.581 12.8971L117.242 13.9812C118.924 14.1917 119.598 16.2667 118.361 17.4252L111.991 23.3935C111.49 23.8628 111.265 24.5561 111.394 25.2301L113.04 33.8029C113.359 35.467 111.594 36.7494 110.11 35.9314L102.466 31.7172C101.864 31.3859 101.136 31.3859 100.534 31.7172L92.8898 35.9314C91.4058 36.7494 89.6407 35.467 89.9601 33.8029L91.6057 25.2301C91.735 24.5561 91.5098 23.8628 91.0089 23.3935L84.6387 17.4252C83.4021 16.2667 84.0764 14.1917 85.7577 13.9812L94.4194 12.8971C95.1004 12.8118 95.6902 12.3834 95.9817 11.7621L99.6894 3.85928Z" fill="#F4AF29"/>
<path d="M139.689 3.85928C140.409 2.32525 142.591 2.32525 143.311 3.85928L147.018 11.7621C147.31 12.3834 147.9 12.8118 148.581 12.8971L157.242 13.9812C158.924 14.1917 159.598 16.2667 158.361 17.4252L151.991 23.3935C151.49 23.8628 151.265 24.5561 151.394 25.2301L153.04 33.8029C153.359 35.467 151.594 36.7494 150.11 35.9314L142.466 31.7172C141.864 31.3859 141.136 31.3859 140.534 31.7172L132.89 35.9314C131.406 36.7494 129.641 35.467 129.96 33.8029L131.606 25.2301C131.735 24.5561 131.51 23.8628 131.009 23.3935L124.639 17.4252C123.402 16.2667 124.076 14.1917 125.758 13.9812L134.419 12.8971C135.1 12.8118 135.69 12.3834 135.982 11.7621L139.689 3.85928Z" fill="#F4AF29"/>
<path d="M179.689 3.85928C180.409 2.32525 182.591 2.32525 183.311 3.85928L187.018 11.7621C187.31 12.3834 187.9 12.8118 188.581 12.8971L197.242 13.9812C198.924 14.1917 199.598 16.2667 198.361 17.4252L191.991 23.3935C191.49 23.8628 191.265 24.5561 191.394 25.2301L193.04 33.8029C193.359 35.467 191.594 36.7494 190.11 35.9314L182.466 31.7172C181.864 31.3859 181.136 31.3859 180.534 31.7172L172.89 35.9314C171.406 36.7494 169.641 35.467 169.96 33.8029L171.606 25.2301C171.735 24.5561 171.51 23.8628 171.009 23.3935L164.639 17.4252C163.402 16.2667 164.076 14.1917 165.758 13.9812L174.419 12.8971C175.1 12.8118 175.69 12.3834 175.982 11.7621L179.689 3.85928Z" fill="#F4AF29"/>
</svg>
